<svg xmlns="http://www.w3.org/2000/svg" width="2048" height="512" viewBox="0 0 2048 512"><rect width="2048" height="512" fill="#000000"/><line x1="80" y1="256.0" x2="1660" y2="256.0" stroke="#CBA975" stroke-width="2" stroke-dasharray="2 11" stroke-linecap="round" opacity="0.7"/><line x1="120.0" y1="136.0" x2="600.0" y2="136.0" stroke="#CBA975" stroke-width="2.4" stroke-linecap="round" /><line x1="600.0" y1="136.0" x2="980.0" y2="256.0" stroke="#CBA975" stroke-width="2.4" stroke-linecap="round" /><line x1="980.0" y1="256.0" x2="1620.0" y2="458.1" stroke="#CBA975" stroke-width="2.4" stroke-linecap="round" /><line x1="120.0" y1="196.0" x2="600.0" y2="196.0" stroke="#CBA975" stroke-width="2.4" stroke-linecap="round" /><line x1="600.0" y1="196.0" x2="980.0" y2="256.0" stroke="#CBA975" stroke-width="2.4" stroke-linecap="round" /><line x1="980.0" y1="256.0" x2="1620.0" y2="357.1" stroke="#CBA975" stroke-width="2.4" stroke-linecap="round" /><line x1="120.0" y1="316.0" x2="600.0" y2="316.0" stroke="#CBA975" stroke-width="2.4" stroke-linecap="round" /><line x1="600.0" y1="316.0" x2="980.0" y2="256.0" stroke="#CBA975" stroke-width="2.4" stroke-linecap="round" /><line x1="980.0" y1="256.0" x2="1620.0" y2="154.9" stroke="#CBA975" stroke-width="2.4" stroke-linecap="round" /><line x1="120.0" y1="376.0" x2="600.0" y2="376.0" stroke="#CBA975" stroke-width="2.4" stroke-linecap="round" /><line x1="600.0" y1="376.0" x2="980.0" y2="256.0" stroke="#CBA975" stroke-width="2.4" stroke-linecap="round" /><line x1="980.0" y1="256.0" x2="1620.0" y2="53.9" stroke="#CBA975" stroke-width="2.4" stroke-linecap="round" /><path d="M 600,96 Q 470,256.0 600,416 Q 730,256.0 600,96 Z" fill="none" stroke="#CBA975" stroke-width="2.8" stroke-linejoin="round"/><circle cx="980" cy="256.0" r="3.6" fill="#CBA975"/><text x="1716" y="283" fill="#CBA975" font-family="Helvetica, Arial, sans-serif" font-size="80" letter-spacing="14" font-weight="400">LENS</text></svg>